<svg xmlns="http://www.w3.org/2000/svg" xmlns:xlink="http://www.w3.org/1999/xlink" width="793.701" height="1122.52" viewBox="0 0 100 100" xmlns:v="https://vecta.io/nano"><path d="M.915-3.265q-.381 0-.914-.381.203-2.108.33-6.477.127-4.547.178-5.461v-.61q.102-2.489.102-3.454 0-.356.279-.559.305-.203.686-.203.889 0 1.905.152.66.102 1.041.33.406.229.406.559 0 .711-1.295.711-.483-.254-1.321-.254h-.305v.305q0 .991-.102 2.515-.127 1.422-.127 2.565v.686h.203.254q1.245 0 1.245.66 0 .33-.279.533-.254.203-.635.203-.61 0-.991-.127v7.188q0 1.118-.66 1.118zm6.909.102q-.33 0-.61-.229-.254-.229-.279-.559v-.66-.508q-.025-.229-.025-.533 0-.533-.076-1.626l-.051-1.626q0-1.245.076-3.708.102-2.21.102-3.708 0-.356-.076-1.067-.076-.737-.076-1.067 0-1.803 1.067-1.803.838 0 1.93.33 1.118.33 1.118.787 0 .254-.229.483-.203.203-.508.33-1.067-.381-1.93-.508.025.381.025 1.092 0 1.016-.025 1.829-.076 1.219-.076 1.829l.076.406.406-.025q.203-.025.508-.025 1.219 0 1.219.711 0 .279-.229.483-.229.178-.584.178-.457 0-.711-.051H8.23q.051.66.051 1.93 0 1.27-.025 2.286-.076 1.549-.076 2.311 0 1.422.051 1.422l.838-.025q.432-.025 1.041-.025.965 0 .965.61 0 .356-.33.533-.305.203-.762.203z"/><use xlink:href="#B"/><path d="M21.946-3.519q-2.21 0-2.21-.762 0-.61.787-.61h.279l.254.025q.203 0 .279-.127.076-.127.076-.457 0-.432-.051-1.346-.076-.61-.178-2.184-.229-3.886-.229-5.867 0-.711.025-1.295l.025-1.295q0-.838-.076-1.397-.406.102-.584.102-.61 0-.61-.61 0-.305.381-.533.381-.229.965-.33 1.016-.203 1.803-.203.305 0 .508.229.229.203.229.483 0 .279-.178.483-.152.203-.406.203-.152 0-.254-.025h-.203q-.254 0-.381.127-.102.102-.102.406 0 2.464.305 7.417.051.914.203 2.692.127 1.168.127 2.388v.965q.152-.025.508-.025 1.067 0 1.067.889v.152l-.635.432q-.025 0-.178.025-.127 0-.508 0-.813.051-1.041.051zm4.673.102q-.305 0-.533-.152-.229-.152-.229-.432 0-.813.203-1.803.229-1.016.635-2.413l.254-.991q.356-1.422.356-2.464 0-.737-.66-3.632-.635-2.896-.914-3.302v-.279q-.254-.229-.254-.635 0-.229.229-.356.229-.152.533-.152.305 0 .508.432.381.711.762 2.616.203.864.279 1.448l.178.94q0 0 .102-.61l.076-.508q.102-.61.127-.813.102-.686.102-1.321v-.457-.381q0-.711.229-1.092.254-.381.914-.559l.457.61q-.178.279-.305.686-.102.406-.102.711-.025.178-.025.787v.279q-.305.813-.635 2.845-.33 2.007-.33 2.921 0 .787.33 2.007.356 1.194 1.041 3.327.457 1.372.457 2.007 0 .254-.203.457-.203.178-.483.178-.432 0-.762-.914-.33-.762-.559-1.93-.305-1.422-.356-1.905l-.127-.584-.229 1.88q-.152 1.397-.406 2.337v.279q0 .94-.66.94zm11.075.279q-.457-.076-.787-.33-.305-.254-.356-.66l.279-.432q.152 0 .483.102.381.076.584.076.457 0 .813-.406.381-.406.559-1.067.33-1.219.33-2.184 0-1.676-1.067-3.531l-.279-.483q-.483-.838-.813-1.499-.33-.66-.559-1.422-.305-.991-.305-1.981 0-1.118.508-2.337.254-.584.711-.94.483-.381 1.067-.381.457 0 .838.305.406.279.406.686 0 .229-.178.356-.178.127-.432.127-.279 0-.533-.152-.559.025-.889.991-.279.889-.279 1.473 0 .737.229 1.499.229.737.584 1.346l.559 1.016.889 1.676q.356.711.559 1.651.229.94.229 1.905 0 1.549-.711 2.946-.356.711-1.016 1.143-.635.432-1.422.432zm8.534.026q-.61 0-1.092-.279-.483-.254-.787-.762-.61-1.067-.787-2.413-.178-1.168-.178-2.794-.076-2.743-.076-6.706l-.025-1.956q-.025-.152-.025-.508-.051-.965-.051-1.168.229-.533.533-.533.305 0 .533.457.254.457.254.991v6.909q0 1.016.178 2.692.178 2.083.178 2.692 0 1.88 1.6 1.88 1.829 0 1.829-13.665v-1.422-.229q-.025-.076-.025-.203 0-.305.127-.432.152-.152.559-.152.33 0 .508.203.203.178.254.432.025.152.025.584 0 .406-.076 1.295-.102.737-.102 1.27 0 .584-.051 1.041l-.051 1.067v.203q.025.102.025.229 0 11.278-3.277 11.278zm10.922-.381q-.864 0-.864-4.191l.025-1.448.025-1.168v-.076-.254q.025-.203.025-.483 0-.051-.076-.127-.076-.076-.076-.127v-.025q-.127.051-.457.051-.33 0-.813-.102-.152-.025-.813-.127v2.921q0 .66.076 2.083.076 1.397.076 2.083 0 .381-.203.66-.203.279-.533.279-.483 0-.686-.94-.203-.965-.203-2.515l.051-2.057q.025-.864.025-1.829v-.432-.356q0-.406-.025-.533v-.127l.076-1.473q0-.965-.076-2.87-.076-1.905-.076-2.87 0-.305.203-.533.203-.229.508-.229.813 0 .813 1.524l-.051 3.15q-.051 1.422-.051 3.175.381.127 1.372.127h.94q.051-.152.051-.305 0-1.219-.152-3.607-.178-2.235-.178-3.632 0-.279.203-.457.229-.203.533-.203.178 0 .508.127l.229.102q0 3.607.254 9.627l.229 6.426q0 .356-.279.559-.254.203-.61.203z"/><use xlink:href="#B" x="47.219"/><defs ><path id="B" d="M17.78-3.087q-.914-.305-2.261-.305-.406.254-.864.254-.305 0-.533-.279-.203-.254-.203-.559 0-2.134.178-5.69.152-3.785.152-5.664v-.178q-.152-1.6-.152-2.388 0-2.413.889-2.413.254 0 .432.203.203.178.203.432 0 .305-.076.965-.076.635-.076.965 0 1.702.025 3.073.025 1.346.025 3.048-.127.381-.127 1.067v.305l-.051 2.007q-.051.889-.051 2.032 0 1.753.838 1.753.051 0 .152 0 .127-.025.33-.025.229-.025.584-.025 1.372 0 1.372.762 0 .254-.229.432-.229.178-.559.229z"/></defs></svg>