<?xml version="1.0" encoding="UTF-8" standalone="no"?>
<svg
   xmlns:dc="http://purl.org/dc/elements/1.1/"
   xmlns:cc="http://creativecommons.org/ns#"
   xmlns:rdf="http://www.w3.org/1999/02/22-rdf-syntax-ns#"
   xmlns:svg="http://www.w3.org/2000/svg"
   xmlns="http://www.w3.org/2000/svg"
   xmlns:sodipodi="http://sodipodi.sourceforge.net/DTD/sodipodi-0.dtd"
   xmlns:inkscape="http://www.inkscape.org/namespaces/inkscape"
   width="210mm"
   height="297mm"
   viewBox="0 0 100 100"
   version="1.1"
   id="svg863"
   sodipodi:docname="title.svg"
   inkscape:version="1.0.2-2 (e86c870879, 2021-01-15)">
  <metadata
     id="metadata867">
    <rdf:RDF>
      <cc:Work
         rdf:about="">
        <dc:format>image/svg+xml</dc:format>
        <dc:type
           rdf:resource="http://purl.org/dc/dcmitype/StillImage" />
        <dc:title></dc:title>
      </cc:Work>
    </rdf:RDF>
  </metadata>
  <sodipodi:namedview
     pagecolor="#ffffff"
     bordercolor="#666666"
     borderopacity="1"
     objecttolerance="10"
     gridtolerance="10"
     guidetolerance="10"
     inkscape:pageopacity="0"
     inkscape:pageshadow="2"
     inkscape:window-width="1510"
     inkscape:window-height="840"
     id="namedview865"
     showgrid="false"
     inkscape:zoom="0.75722503"
     inkscape:cx="396.85039"
     inkscape:cy="402.78648"
     inkscape:window-x="0"
     inkscape:window-y="0"
     inkscape:window-maximized="0"
     inkscape:current-layer="svg863" />
  <defs
     id="defs853">
    <path
       id="b"
       d="M30.710566 68.886162h77.201637v31.277531H30.710566z" />
    <path
       id="a"
       d="M8.315476 71.815475h151.94643v86.178574H8.315476z" />
  </defs>
  <g
     font-weight="400"
     font-family="sans-serif"
     id="g861">
    <g
       aria-label="felix suhl"
       transform="translate(-31.879337 -96.019828)"
       id="text859"
       style="font-size:25.4px;line-height:1.25;white-space:pre;shape-inside:url(#b);fill:currentColor">
      <path
         d="m 32.793737,92.755346 q -0.381,0 -0.9144,-0.381 0.2032,-2.1082 0.3302,-6.477 0.127,-4.5466 0.1778,-5.461 v -0.6096 q 0.1016,-2.4892 0.1016,-3.4544 0,-0.3556 0.2794,-0.5588 0.3048,-0.2032 0.6858,-0.2032 0.889,0 1.905,0.1524 0.6604,0.1016 1.0414,0.3302 0.4064,0.2286 0.4064,0.5588 0,0.7112 -1.2954,0.7112 -0.4826,-0.254 -1.3208,-0.254 h -0.3048 v 0.3048 q 0,0.9906 -0.1016,2.5146 -0.127,1.4224 -0.127,2.5654 v 0.6858 h 0.2032 0.254 q 1.2446,0 1.2446,0.6604 0,0.3302 -0.2794,0.5334 -0.254,0.2032 -0.635,0.2032 -0.6096,0 -0.9906,-0.127 v 7.1882 q 0,1.1176 -0.6604,1.1176 z"
         style="font-weight:700;font-family:'Amatic SC';-inkscape-font-specification:'Amatic SC Bold'"
         id="path869" />
      <path
         d="m 39.702531,92.856946 q -0.3302,0 -0.6096,-0.2286 -0.254,-0.2286 -0.2794,-0.5588 v -0.6604 -0.508 q -0.0254,-0.2286 -0.0254,-0.5334 0,-0.5334 -0.0762,-1.6256 l -0.0508,-1.6256 q 0,-1.2446 0.0762,-3.7084 0.1016,-2.2098 0.1016,-3.7084 0,-0.3556 -0.0762,-1.0668 -0.0762,-0.7366 -0.0762,-1.0668 0,-1.8034 1.0668,-1.8034 0.8382,0 1.9304,0.3302 1.1176,0.3302 1.1176,0.7874 0,0.254 -0.2286,0.4826 -0.2032,0.2032 -0.508,0.3302 -1.0668,-0.381 -1.9304,-0.508 0.0254,0.381 0.0254,1.0922 0,1.016 -0.0254,1.8288 -0.0762,1.2192 -0.0762,1.8288 l 0.0762,0.4064 0.4064,-0.0254 q 0.2032,-0.0254 0.508,-0.0254 1.2192,0 1.2192,0.7112 0,0.2794 -0.2286,0.4826 -0.2286,0.1778 -0.5842,0.1778 -0.4572,0 -0.7112,-0.0508 h -0.635 q 0.0508,0.6604 0.0508,1.9304 0,1.27 -0.0254,2.286 -0.0762,1.5494 -0.0762,2.3114 0,1.4224 0.0508,1.4224 l 0.8382,-0.0254 q 0.4318,-0.0254 1.0414,-0.0254 0.9652,0 0.9652,0.6096 0,0.3556 -0.3302,0.5334 -0.3048,0.2032 -0.762,0.2032 z"
         style="font-weight:700;font-family:'Amatic SC';-inkscape-font-specification:'Amatic SC Bold'"
         id="path871" />
      <path
         d="m 49.659292,92.933146 q -0.9144,-0.3048 -2.2606,-0.3048 -0.4064,0.254 -0.8636,0.254 -0.3048,0 -0.5334,-0.2794 -0.2032,-0.254 -0.2032,-0.5588 0,-2.1336 0.1778,-5.6896 0.1524,-3.7846 0.1524,-5.6642 v -0.1778 q -0.1524,-1.6002 -0.1524,-2.3876 0,-2.413 0.889,-2.413 0.254,0 0.4318,0.2032 0.2032,0.1778 0.2032,0.4318 0,0.3048 -0.0762,0.9652 -0.0762,0.635 -0.0762,0.9652 0,1.7018 0.0254,3.0734 0.0254,1.3462 0.0254,3.048 -0.127,0.381 -0.127,1.0668 v 0.3048 l -0.0508,2.0066 q -0.0508,0.889 -0.0508,2.032 0,1.7526 0.8382,1.7526 0.0508,0 0.1524,0 0.127,-0.0254 0.3302,-0.0254 0.2286,-0.0254 0.5842,-0.0254 1.3716,0 1.3716,0.762 0,0.254 -0.2286,0.4318 -0.2286,0.1778 -0.5588,0.2286 z"
         style="font-weight:700;font-family:'Amatic SC';-inkscape-font-specification:'Amatic SC Bold'"
         id="path873" />
      <path
         d="m 53.824884,92.501346 q -2.2098,0 -2.2098,-0.762 0,-0.6096 0.7874,-0.6096 h 0.2794 l 0.254,0.0254 q 0.2032,0 0.2794,-0.127 0.0762,-0.127 0.0762,-0.4572 0,-0.4318 -0.0508,-1.3462 -0.0762,-0.6096 -0.1778,-2.1844 -0.2286,-3.8862 -0.2286,-5.8674 0,-0.7112 0.0254,-1.2954 l 0.0254,-1.2954 q 0,-0.8382 -0.0762,-1.397 -0.4064,0.1016 -0.5842,0.1016 -0.6096,0 -0.6096,-0.6096 0,-0.3048 0.381,-0.5334 0.381,-0.2286 0.9652,-0.3302 1.016,-0.2032 1.8034,-0.2032 0.3048,0 0.508,0.2286 0.2286,0.2032 0.2286,0.4826 0,0.2794 -0.1778,0.4826 -0.1524,0.2032 -0.4064,0.2032 -0.1524,0 -0.254,-0.0254 h -0.2032 q -0.254,0 -0.381,0.127 -0.1016,0.1016 -0.1016,0.4064 0,2.4638 0.3048,7.4168 0.0508,0.9144 0.2032,2.6924 0.127,1.1684 0.127,2.3876 v 0.9652 q 0.1524,-0.0254 0.508,-0.0254 1.0668,0 1.0668,0.889 v 0.1524 l -0.635,0.4318 q -0.0254,0 -0.1778,0.0254 -0.127,0 -0.508,0 -0.8128,0.0508 -1.0414,0.0508 z"
         style="font-weight:700;font-family:'Amatic SC';-inkscape-font-specification:'Amatic SC Bold'"
         id="path875" />
      <path
         d="m 58.498478,92.602946 q -0.3048,0 -0.5334,-0.1524 -0.2286,-0.1524 -0.2286,-0.4318 0,-0.8128 0.2032,-1.8034 0.2286,-1.016 0.635,-2.413 l 0.254,-0.9906 q 0.3556,-1.4224 0.3556,-2.4638 0,-0.7366 -0.6604,-3.6322 -0.635,-2.8956 -0.9144,-3.302 v -0.2794 q -0.254,-0.2286 -0.254,-0.635 0,-0.2286 0.2286,-0.3556 0.2286,-0.1524 0.5334,-0.1524 0.3048,0 0.508,0.4318 0.381,0.7112 0.762,2.6162 0.2032,0.8636 0.2794,1.4478 l 0.1778,0.9398 q 0,0 0.1016,-0.6096 l 0.0762,-0.508 q 0.1016,-0.6096 0.127,-0.8128 0.1016,-0.6858 0.1016,-1.3208 v -0.4572 -0.381 q 0,-0.7112 0.2286,-1.0922 0.254,-0.381 0.9144,-0.5588 l 0.4572,0.6096 q -0.1778,0.2794 -0.3048,0.6858 -0.1016,0.4064 -0.1016,0.7112 -0.0254,0.1778 -0.0254,0.7874 v 0.2794 q -0.3048,0.8128 -0.635,2.8448 -0.3302,2.0066 -0.3302,2.921 0,0.7874 0.3302,2.0066 0.3556,1.1938 1.0414,3.3274 0.4572,1.3716 0.4572,2.0066 0,0.254 -0.2032,0.4572 -0.2032,0.1778 -0.4826,0.1778 -0.4318,0 -0.762,-0.9144 -0.3302,-0.762 -0.5588,-1.9304 -0.3048,-1.4224 -0.3556,-1.905 l -0.127,-0.5842 -0.2286,1.8796 q -0.1524,1.397 -0.4064,2.3368 v 0.2794 q 0,0.9398 -0.6604,0.9398 z"
         style="font-weight:700;font-family:'Amatic SC';-inkscape-font-specification:'Amatic SC Bold'"
         id="path877" />
      <path
         d="m 69.572796,92.882346 q -0.4572,-0.0762 -0.7874,-0.3302 -0.3048,-0.254 -0.3556,-0.6604 l 0.2794,-0.4318 q 0.1524,0 0.4826,0.1016 0.381,0.0762 0.5842,0.0762 0.4572,0 0.8128,-0.4064 0.381,-0.4064 0.5588,-1.0668 0.3302,-1.2192 0.3302,-2.1844 0,-1.6764 -1.0668,-3.5306 l -0.2794,-0.4826 q -0.4826,-0.8382 -0.8128,-1.4986 -0.3302,-0.6604 -0.5588,-1.4224 -0.3048,-0.9906 -0.3048,-1.9812 0,-1.1176 0.508,-2.3368 0.254,-0.5842 0.7112,-0.9398 0.4826,-0.381 1.0668,-0.381 0.4572,0 0.8382,0.3048 0.4064,0.2794 0.4064,0.6858 0,0.2286 -0.1778,0.3556 -0.1778,0.127 -0.4318,0.127 -0.2794,0 -0.5334,-0.1524 -0.5588,0.0254 -0.889,0.9906 -0.2794,0.889 -0.2794,1.4732 0,0.7366 0.2286,1.4986 0.2286,0.7366 0.5842,1.3462 l 0.5588,1.016 0.889,1.6764 q 0.3556,0.7112 0.5588,1.651 0.2286,0.9398 0.2286,1.905 0,1.5494 -0.7112,2.9464 -0.3556,0.7112 -1.016,1.143 -0.635,0.4318 -1.4224,0.4318 z"
         style="font-weight:700;font-family:'Amatic SC';-inkscape-font-specification:'Amatic SC Bold'"
         id="path879" />
      <path
         d="m 78.107189,92.907746 q -0.6096,0 -1.0922,-0.2794 -0.4826,-0.254 -0.7874,-0.762 -0.6096,-1.0668 -0.7874,-2.413 -0.1778,-1.1684 -0.1778,-2.794 -0.0762,-2.7432 -0.0762,-6.7056 l -0.0254,-1.9558 q -0.0254,-0.1524 -0.0254,-0.508 -0.0508,-0.9652 -0.0508,-1.1684 0.2286,-0.5334 0.5334,-0.5334 0.3048,0 0.5334,0.4572 0.254,0.4572 0.254,0.9906 v 6.9088 q 0,1.016 0.1778,2.6924 0.1778,2.0828 0.1778,2.6924 0,1.8796 1.6002,1.8796 1.8288,0 1.8288,-13.6652 v -1.4224 -0.2286 q -0.0254,-0.0762 -0.0254,-0.2032 0,-0.3048 0.127,-0.4318 0.1524,-0.1524 0.5588,-0.1524 0.3302,0 0.508,0.2032 0.2032,0.1778 0.254,0.4318 0.0254,0.1524 0.0254,0.5842 0,0.4064 -0.0762,1.2954 -0.1016,0.7366 -0.1016,1.27 0,0.5842 -0.0508,1.0414 l -0.0508,1.0668 v 0.2032 q 0.0254,0.1016 0.0254,0.2286 0,11.2776 -3.2766,11.2776 z"
         style="font-weight:700;font-family:'Amatic SC';-inkscape-font-specification:'Amatic SC Bold'"
         id="path881" />
      <path
         d="m 89.029142,92.526746 q -0.8636,0 -0.8636,-4.191 l 0.0254,-1.4478 0.0254,-1.1684 v -0.0762 -0.254 q 0.0254,-0.2032 0.0254,-0.4826 0,-0.0508 -0.0762,-0.127 -0.0762,-0.0762 -0.0762,-0.127 v -0.0254 q -0.127,0.0508 -0.4572,0.0508 -0.3302,0 -0.8128,-0.1016 -0.1524,-0.0254 -0.8128,-0.127 v 2.921 q 0,0.6604 0.0762,2.0828 0.0762,1.397 0.0762,2.0828 0,0.381 -0.2032,0.6604 -0.2032,0.2794 -0.5334,0.2794 -0.4826,0 -0.6858,-0.9398 -0.2032,-0.9652 -0.2032,-2.5146 l 0.0508,-2.0574 q 0.0254,-0.8636 0.0254,-1.8288 v -0.4318 -0.3556 q 0,-0.4064 -0.0254,-0.5334 v -0.127 l 0.0762,-1.4732 q 0,-0.9652 -0.0762,-2.8702 -0.0762,-1.905 -0.0762,-2.8702 0,-0.3048 0.2032,-0.5334 0.2032,-0.2286 0.508,-0.2286 0.8128,0 0.8128,1.524 l -0.0508,3.1496 q -0.0508,1.4224 -0.0508,3.175 0.381,0.127 1.3716,0.127 h 0.9398 q 0.0508,-0.1524 0.0508,-0.3048 0,-1.2192 -0.1524,-3.6068 -0.1778,-2.2352 -0.1778,-3.6322 0,-0.2794 0.2032,-0.4572 0.2286,-0.2032 0.5334,-0.2032 0.1778,0 0.508,0.127 l 0.2286,0.1016 q 0,3.6068 0.254,9.6266 l 0.2286,6.4262 q 0,0.3556 -0.2794,0.5588 -0.254,0.2032 -0.6096,0.2032 z"
         style="font-weight:700;font-family:'Amatic SC';-inkscape-font-specification:'Amatic SC Bold'"
         id="path883" />
      <path
         d="m 96.877725,92.933146 q -0.9144,-0.3048 -2.2606,-0.3048 -0.4064,0.254 -0.8636,0.254 -0.3048,0 -0.5334,-0.2794 -0.2032,-0.254 -0.2032,-0.5588 0,-2.1336 0.1778,-5.6896 0.1524,-3.7846 0.1524,-5.6642 v -0.1778 q -0.1524,-1.6002 -0.1524,-2.3876 0,-2.413 0.889,-2.413 0.254,0 0.4318,0.2032 0.2032,0.1778 0.2032,0.4318 0,0.3048 -0.0762,0.9652 -0.0762,0.635 -0.0762,0.9652 0,1.7018 0.0254,3.0734 0.0254,1.3462 0.0254,3.048 -0.127,0.381 -0.127,1.0668 v 0.3048 l -0.0508,2.0066 q -0.0508,0.889 -0.0508,2.032 0,1.7526 0.8382,1.7526 0.0508,0 0.1524,0 0.127,-0.0254 0.3302,-0.0254 0.2286,-0.0254 0.5842,-0.0254 1.3716,0 1.3716,0.762 0,0.254 -0.2286,0.4318 -0.2286,0.1778 -0.5588,0.2286 z"
         style="font-weight:700;font-family:'Amatic SC';-inkscape-font-specification:'Amatic SC Bold'"
         id="path885" />
    </g>
  </g>
</svg>
